<svg xmlns="http://www.w3.org/2000/svg" viewBox="0 0 120 120">
  <rect width="120" height="120" rx="26" fill="#1b1a17"/>
  <g fill="none" stroke="#c96442" stroke-width="6" stroke-linecap="round" stroke-linejoin="round" transform="translate(13.2 13.2) scale(0.78)">
    <path d="M 56.54 44.00 Q 60.00 42.00 63.46 44.00 L 72.12 49.00 Q 75.59 51.00 75.59 55.00 L 75.59 65.00 Q 75.59 69.00 72.12 71.00 L 63.46 76.00 Q 60.00 78.00 56.54 76.00 L 47.88 71.00 Q 44.41 69.00 44.41 65.00 L 44.41 55.00 Q 44.41 51.00 47.88 49.00 Z"/>
    <path d="M 60.00 42.00 L 60.00 30.00 Q 60.00 16.00 72.12 23.00 L 85.98 31.00 Q 98.11 38.00 98.11 52.00 L 98.11 77.50"/>
    <path d="M 44.41 69.00 L 34.02 75.00 Q 21.89 82.00 21.89 68.00 L 21.89 52.00 Q 21.89 38.00 34.02 31.00 L 56.10 18.25"/>
    <path d="M 75.59 69.00 L 85.98 75.00 Q 98.11 82.00 85.98 89.00 L 72.12 97.00 Q 60.00 104.00 47.88 97.00 L 25.79 84.25"/>
  </g>
</svg>
